<svg width="173" height="47" viewBox="0 0 173 47" fill="none" xmlns="http://www.w3.org/2000/svg">
<path d="M107.653 0.323323C103.835 0.303646 100.059 0.366602 96.2834 0.491123C94.4419 0.379497 92.5552 0.33573 90.6902 0.326438C88.0037 0.320709 85.3161 0.403906 82.6725 0.521853C80.0288 0.64664 77.3847 0.80563 74.7846 0.992528C69.5621 1.37973 64.4276 1.83644 59.4247 2.41791C54.5553 2.9805 49.7735 3.6468 45.3228 4.46085C43.0975 4.86445 40.9605 5.31019 38.8898 5.78411C36.7745 6.27117 34.7697 6.80064 32.8314 7.34461C31.8733 7.61331 30.9374 7.88912 30.0014 8.17178C27.0408 8.78525 24.1245 9.41296 21.3406 10.1039C19.7592 10.5017 18.222 10.9275 16.7512 11.3609C15.2805 11.7943 13.8762 12.2423 12.516 12.7112C11.1335 13.1936 9.8395 13.6977 8.63397 14.2301C7.45073 14.756 6.42263 15.3044 5.483 15.8812C4.54328 16.4648 3.69227 17.0564 2.88558 17.6553C2.07881 18.2611 1.38278 18.8888 0.598119 19.5017C0.396384 19.6566 0.70482 19.852 1.17 19.9398C1.45793 19.9981 1.81295 20.0162 2.12409 19.9926C2.41302 19.9688 2.74677 19.9113 2.85887 19.8238C3.57524 19.3469 4.2695 18.8628 4.98579 18.3927C5.74682 17.8958 6.52996 17.4061 7.3353 16.9165C8.11836 16.4336 8.99013 15.9586 9.90605 15.5046C10.7995 15.071 11.7816 14.652 12.8301 14.2476C14.3025 13.6842 15.9075 13.1635 17.5569 12.6502C15.9718 13.3559 14.5195 14.0906 13.2224 14.8477C10.7848 16.268 8.98966 17.799 7.97087 19.3942C7.47253 20.1953 7.19602 21.0129 7.11923 21.8398C7.04243 22.6667 7.23212 23.49 7.57729 24.3084C8.28965 25.9591 9.84611 27.5792 11.9141 29.1304C13.9822 30.6678 16.5173 32.1495 19.3418 33.5731C22.1663 34.9899 25.3025 36.3421 28.8395 37.6035C35.8028 40.0906 44.5711 42.0527 54.1233 43.4566C64.008 44.9056 74.6995 45.7489 85.4418 46.0796C90.8794 46.2492 96.3412 46.2618 101.738 46.1435C107.157 46.0256 112.533 45.7771 117.778 45.3696C122.89 44.9742 127.848 44.4195 132.608 43.7393C137.234 43.0711 141.596 42.2559 145.671 41.321C153.909 39.4316 160.49 36.906 164.9 34.039C169.466 31.0576 171.594 27.7451 172.079 24.4261C172.321 22.7324 172.076 21.0258 171.409 19.3346C170.741 17.6502 169.563 15.9869 167.895 14.3654C167.083 13.5686 166.138 12.7839 165.126 12.012C164.115 11.2265 162.992 10.4532 161.669 9.70488C159.133 8.26428 155.797 6.96433 152.037 5.80284C150.112 5.21128 148.032 4.6657 145.884 4.15349C143.759 3.6484 141.5 3.20324 139.174 2.7983C134.388 1.97309 129.222 1.36897 123.942 0.975532C119.307 0.59003 114.469 0.400442 109.629 0.340822C108.963 0.332618 108.297 0.324413 107.653 0.323323ZM91.0193 0.652044C91.3301 0.655873 91.641 0.652861 91.9296 0.656416C91.6185 0.673109 91.3297 0.683235 91.0187 0.699928C80.2885 1.19716 69.9513 2.23288 59.9008 3.42264C54.9201 4.01123 50.0495 4.66959 45.2891 5.39772C42.9533 5.75892 40.6396 6.13406 38.3477 6.53685C37.7691 6.63918 37.1906 6.74152 36.612 6.8507C37.9262 6.50429 39.2624 6.17867 40.6651 5.86072C43.6486 5.19279 46.7644 4.59491 50.0346 4.07419C53.2826 3.56004 56.6186 3.10855 60.0429 2.70603C60.0207 2.70576 60.0207 2.70576 59.9984 2.71232C60.0429 2.70603 60.0651 2.7063 60.1096 2.70001L60.1318 2.70028C60.1318 2.70028 60.1318 2.70028 60.1096 2.70001C62.1552 2.45839 64.245 2.23784 66.3346 2.03781C68.4908 1.83176 70.6911 1.65362 72.8913 1.48232C77.2251 1.14574 81.6248 0.864705 86.0893 0.728141C86.0671 0.727868 86.0671 0.727868 86.0449 0.727594C87.7108 0.67286 89.3541 0.645214 91.0193 0.652044ZM118.958 1.83774C121.488 1.97837 123.972 2.16633 126.434 2.39506C128.896 2.63063 131.312 2.91354 133.684 3.24378C137.762 3.8345 141.616 4.57982 145.158 5.45812C148.854 6.3999 152.216 7.4607 155.11 8.63889C156.568 9.25207 157.892 9.8978 159.061 10.5621C160.295 11.2615 161.352 11.986 162.32 12.7163C163.794 13.8291 165.09 14.9603 166.142 16.1089C167.259 17.3405 168.065 18.5887 168.605 19.8474C169.661 22.4465 169.673 25.0806 168.531 27.6527C167.596 29.6526 165.929 31.6024 163.375 33.4524C163.419 33.4255 163.442 33.3985 163.487 33.3785C161.269 34.9589 158.409 36.4357 154.929 37.7816C153.278 38.4044 151.517 38.9916 149.645 39.5501C147.728 40.1148 145.657 40.6366 143.497 41.1232C143.564 41.1103 143.609 41.0972 143.675 41.0843C141.026 41.6742 138.266 42.2149 135.374 42.6993C132.459 43.1901 129.434 43.6044 126.344 43.9768C126.41 43.9708 126.477 43.958 126.544 43.9519C123.053 44.3605 119.452 44.6992 115.807 44.9622C112.007 45.237 108.142 45.4151 104.255 45.5314C100.079 45.651 95.9042 45.6885 91.7084 45.6437C87.4016 45.5975 83.0959 45.4555 78.8357 45.232C78.8579 45.2322 78.8579 45.2322 78.8801 45.2325C70.9588 44.8065 63.1744 44.088 55.8158 43.0464C50.0089 42.2086 44.4931 41.176 39.4905 39.9308C39.4905 39.9308 39.4905 39.9308 39.4683 39.9305C39.4019 39.916 39.3576 39.9018 39.2912 39.8873C39.3355 39.8947 39.3576 39.9087 39.4019 39.916C36.8565 39.2689 34.4448 38.5824 32.1892 37.8431C29.9335 37.1107 27.8563 36.312 25.8902 35.501C23.3941 34.4577 21.1207 33.3556 19.0252 32.2351C16.952 31.1149 15.0789 29.963 13.4726 28.7801C13.4947 28.7941 13.5168 28.8012 13.5166 28.8149C11.4486 27.2637 9.93648 25.651 9.20191 24C9.20174 24.0137 9.20166 24.0205 9.22369 24.0345C9.22386 24.0208 9.20191 24 9.20208 23.9863C9.20216 23.9795 9.20225 23.9727 9.20233 23.9658C9.20225 23.9727 9.20225 23.9727 9.20216 23.9795C8.94369 23.3332 8.81841 22.6886 8.82642 22.0387C8.83442 21.3889 8.99783 20.7409 9.27223 20.0944C9.27214 20.1012 9.27198 20.1149 9.24969 20.1214C9.24986 20.1078 9.27231 20.0875 9.27248 20.0738C9.27256 20.067 9.27265 20.0602 9.27265 20.0602C9.27256 20.067 9.27256 20.067 9.27248 20.0738C9.91059 18.7408 11.1255 17.449 12.8281 16.218C12.828 16.2248 12.8057 16.2314 12.8056 16.2382C12.8281 16.218 12.8504 16.2046 12.8729 16.1843C12.8729 16.1843 12.8729 16.1843 12.873 16.1775C15.3814 14.4159 18.7762 12.802 22.6357 11.3102C22.948 11.1909 23.2603 11.0716 23.5726 10.9523C24.4858 10.7241 25.4433 10.4965 26.4007 10.2825C28.9611 9.70515 31.61 9.16309 34.2587 8.62788C37.0632 8.06721 39.934 7.53473 42.8709 7.04411C48.8334 6.05713 55.0608 5.20339 61.4201 4.45391C61.2645 4.47251 61.131 4.49139 60.9755 4.50316C66.89 3.80977 72.8927 3.1722 79.0048 2.66596C85.0502 2.16575 91.2492 1.81794 97.5129 1.62144C99.423 1.56971 101.333 1.53167 103.243 1.51415C103.664 1.56723 104.085 1.6203 104.484 1.67311C104.44 1.66572 104.395 1.65834 104.351 1.65779C104.44 1.67256 104.528 1.6805 104.595 1.695C104.838 1.73905 105.172 1.72263 105.306 1.64903C105.395 1.60224 105.396 1.54751 105.33 1.50565C109.904 1.50042 114.454 1.60437 118.958 1.83774ZM118.492 1.81148C118.581 1.81941 118.67 1.8205 118.781 1.82871C118.67 1.82734 118.581 1.81941 118.492 1.81148ZM97.9569 1.62007C97.9125 1.61952 97.8458 1.62554 97.8014 1.625C97.8459 1.6187 97.8903 1.61925 97.9569 1.62007ZM145.202 5.47919C145.291 5.5008 145.357 5.52215 145.445 5.54376C145.379 5.51558 145.291 5.5008 145.202 5.47919ZM22.7471 11.2774C22.7248 11.284 22.7247 11.2908 22.7025 11.2974C22.7026 11.2837 22.7248 11.284 22.7471 11.2774ZM12.8524 14.2411C12.8301 14.2545 12.8078 14.261 12.7632 14.2742C12.7856 14.2608 12.8301 14.2545 12.8524 14.2411ZM9.20208 23.9863C9.202 23.9932 9.20191 24 9.20191 24C9.20199 23.9932 9.20216 23.9795 9.18005 23.9724C9.20216 23.9795 9.20208 23.9863 9.20208 23.9863ZM9.27248 20.0738C9.2724 20.0807 9.27231 20.0875 9.27214 20.1012C9.27231 20.0875 9.27248 20.0738 9.27248 20.0738C9.27256 20.067 9.27256 20.067 9.27248 20.0738ZM60.1096 2.69317C60.0874 2.6929 60.0652 2.69946 60.043 2.69919C60.0652 2.69946 60.0874 2.69974 60.1096 2.69317Z" fill="#3272F6"/>
</svg>
